<?xml version="1.0" standalone="no"?>
<!-- Generator: Adobe Fireworks 10, Export SVG Extension by Aaron Beall (http://fireworks.abeall.com) . Version: 0.6.1  -->
<!DOCTYPE svg PUBLIC "-//W3C//DTD SVG 1.1//EN" "http://www.w3.org/Graphics/SVG/1.1/DTD/svg11.dtd">
<svg id="Fats%20Letras-Page%201" viewBox="0 0 1512 980" style="background-color:#97b9ac" version="1.1"
	xmlns="http://www.w3.org/2000/svg" xmlns:xlink="http://www.w3.org/1999/xlink" xml:space="preserve"
	x="0px" y="0px" width="1512px" height="980px"
>
	<g id="Layer%201">
		<path d="M 249.6058 852.5363 L 273.8215 759.3302 L 260.3721 662.1841 C 260.3721 662.1841 480.6249 680.0372 763.2833 597.2776 C 1043.5508 515.2179 1223.6152 460.1154 1385.7721 540.2507 L 1359.3782 628.0983 L 1423 726.9562 C 1423 726.9562 1230.2253 593.0302 789.2157 729.2662 C 342.165 867.3684 249.6058 852.5363 249.6058 852.5363 Z" stroke="#ffffff00" stroke-width="5" fill="#8b8c55"/>
		<path d="M 237.4247 842.4525 L 261.6405 749.2465 L 248.191 652.1003 C 248.191 652.1003 468.4438 669.9534 751.1023 587.1937 C 1031.3696 505.134 1211.4342 450.0316 1373.5909 530.1669 L 1347.1971 618.0145 L 1410.819 716.8724 C 1410.819 716.8724 1218.0442 582.9464 777.0347 719.1823 C 329.9839 857.2847 237.4247 842.4525 237.4247 842.4525 Z" fill="#ffffff"/>
		<path d="M 339.1944 746.3484 C 344.4399 745.8859 348.3575 746.41 351.0185 747.9102 C 353.672 749.4063 355.1465 751.933 355.4468 755.4847 C 355.7682 759.2871 354.7565 762.1473 352.4014 763.9445 C 350.0526 765.8063 345.857 766.9867 339.8064 767.5521 L 335.3224 767.9712 L 333.3352 746.8648 L 339.1944 746.3484 L 339.1944 746.3484 ZM 336.3594 720.5516 C 340.3268 720.2278 343.3468 720.734 345.4095 721.932 C 347.4069 723.2006 348.5963 725.2816 348.8472 728.1827 C 349.1264 731.4122 348.3204 733.712 346.5024 735.1506 C 344.6906 736.6558 341.4808 737.539 336.8098 737.9406 L 332.5296 738.3086 L 330.8997 720.9976 L 336.3594 720.5516 L 336.3594 720.5516 ZM 350.912 774.8876 C 358.3386 774.1779 363.8127 772.2896 367.4758 769.0779 C 371.1411 765.8643 372.7698 761.5953 372.3489 756.1226 C 372.0467 752.197 370.5438 748.8946 367.9087 746.3439 C 365.1982 743.7898 361.5443 741.9758 356.8213 741.0508 C 360.059 740.0323 362.4388 738.2852 363.9647 735.8068 C 365.4977 733.392 366.1119 730.2443 365.816 726.4902 C 365.4074 721.3076 363.1564 717.3417 359.0502 714.6008 C 354.9249 711.8473 349.4991 710.6978 342.776 711.2319 L 312.6502 713.6252 L 319.2031 777.9173 L 350.912 774.8876 L 350.912 774.8876 Z" fill="#8b8c55"/>
		<path d="M 389.1228 705.0696 L 376.9424 706.1585 L 380.6937 761.3973 C 380.9645 765.3842 381.9135 768.0812 383.6043 769.4829 C 385.2317 770.8901 388.012 771.418 391.8818 771.072 L 401.715 770.193 L 401.4354 766.0774 L 398.5807 766.3326 C 396.4872 766.5197 395.0609 766.1944 394.2976 765.2921 C 393.4752 764.46 393.0356 762.6877 392.8611 760.1155 L 389.1228 705.0696 L 389.1228 705.0696 Z" fill="#8b8c55"/>
		<path d="M 406.3591 751.0261 C 406.5027 756.3671 407.8342 760.33 410.4867 762.8519 C 413.1582 765.4531 417.1806 766.6685 422.7141 766.6095 C 428.1171 766.5519 432.1785 765.1626 434.8635 762.4333 C 437.4945 759.6942 438.7824 755.5575 438.5942 750.1732 L 437.7333 725.553 L 429.538 725.9662 L 430.2935 748.9315 C 430.4064 752.3611 429.9759 754.853 429.1266 756.2715 C 428.2144 757.6897 426.6444 758.4191 424.4231 758.4606 C 422.2746 758.5005 420.6794 757.8356 419.7584 756.4657 C 418.777 755.1005 418.2659 752.6589 418.1647 749.2698 L 417.4871 726.5739 L 405.7175 727.1675 L 406.3591 751.0261 L 406.3591 751.0261 Z" fill="#8b8c55"/>
		<path d="M 479.9246 758.073 L 479.4864 754.0447 L 467.0165 755.1687 C 465.3278 755.3209 464.1246 755.1116 463.5365 754.5289 C 462.9484 753.9464 462.5518 752.7109 462.3395 750.7596 L 461.5452 743.4582 L 474.0152 742.3342 L 473.577 738.3057 L 461.1071 739.4298 L 460.0664 729.8624 C 459.7857 727.2817 459.8538 725.4958 460.3425 724.562 C 460.7662 723.6339 461.8224 723.0938 463.511 722.9416 L 474.7468 721.9288 L 474.3087 717.9005 L 454.5647 719.6802 C 451.577 719.9495 449.5741 720.8292 448.4771 722.1993 C 447.3799 723.5694 447.0419 725.8881 447.3842 729.0352 L 450.0134 753.2056 C 450.3146 755.9751 451.1115 757.8737 452.4686 758.8954 C 453.8259 759.9172 455.959 760.2333 458.9465 759.964 L 479.9246 758.073 L 479.9246 758.073 Z" fill="#8b8c55"/>
		<path d="M 503.0077 753.7624 C 508.285 753.0222 512.3177 751.1777 514.9625 748.121 C 517.6074 745.0644 518.6747 741.27 518.0302 736.6925 C 517.5623 733.3692 516.3836 730.9129 514.5481 729.2521 C 512.7214 727.6539 509.4763 726.4467 504.8126 725.6302 C 504.2924 725.5753 503.512 725.4929 502.5166 725.2488 C 498.0139 724.6655 495.6571 723.3976 495.3834 721.4537 C 495.2422 720.4505 495.63 719.5649 496.6097 718.788 C 497.5895 718.0111 498.9904 717.4948 500.8751 717.2305 L 510.6758 715.8557 L 510.1107 711.8426 L 498.5509 713.4642 C 493.2736 714.2045 489.3489 715.906 486.9024 718.5511 C 484.4559 721.1962 483.5329 724.6507 484.1333 728.9146 C 484.5394 731.799 485.5571 734.0222 487.1688 735.4586 C 488.7805 736.895 491.5055 738.0474 495.4603 738.8354 C 496.2496 738.9805 497.4334 739.1981 498.9314 739.3716 C 503.7747 740.0989 506.4269 741.6452 506.7535 743.9652 C 507.0184 745.8464 506.5756 747.2513 505.4878 748.1712 C 504.3373 749.1 502.2542 749.7758 499.1758 750.2076 L 489.1237 751.6176 L 489.6887 755.6307 L 503.0077 753.7624 L 503.0077 753.7624 Z" fill="#8b8c55"/>
		<path d="M 570.4891 738.2581 L 557.7201 687.1403 L 561.5983 686.1752 C 567.0154 684.8271 571.2007 684.8297 574.2773 686.1523 C 577.3539 687.4751 579.4139 690.2253 580.4269 694.2803 C 581.4091 698.2125 580.8377 701.4219 578.8511 703.9393 C 576.8646 706.4566 573.2782 708.328 568.2304 709.5841 L 563.6135 710.733 L 588.4026 733.8003 L 606.5008 729.2966 L 584.2944 709.7632 C 589.2506 707.3552 592.6992 704.4087 594.6556 700.9852 C 596.5658 697.6385 597.0299 693.738 595.9556 689.4372 C 594.4976 683.6005 591.1304 679.5439 585.8387 677.2062 C 580.5625 674.93 574.1 674.7109 566.4053 676.6257 L 539.9967 683.1975 L 554.7302 742.1796 L 570.4891 738.2581 L 570.4891 738.2581 Z" fill="#8b8c55"/>
		<path d="M 633.6226 714.3247 C 633.0359 717.2115 631.4346 718.9152 628.9106 719.5433 C 626.2021 720.2173 623.7869 719.4479 621.7573 717.0816 C 619.7277 714.7153 618.053 710.8902 616.7024 705.4835 C 615.4132 700.3226 615.0773 696.3601 615.6639 693.4732 C 616.2658 690.6479 617.8518 688.8828 620.4373 688.2394 C 623.1458 687.5653 625.5764 688.3962 627.606 690.7625 C 629.6355 693.1288 631.3103 696.9539 632.6301 702.2377 C 633.9193 707.3987 634.2091 711.4378 633.6226 714.3247 L 633.6226 714.3247 ZM 642.6697 714.9446 C 645.4114 710.7384 646.0608 705.7476 644.6335 700.0338 C 643.1602 694.1356 640.0088 689.6339 635.2715 686.6362 C 630.5342 683.6385 625.3645 682.8366 619.8243 684.2153 C 613.7916 685.7166 609.4198 688.6317 606.6936 692.8994 C 603.9826 697.2285 603.3177 702.1578 604.7297 707.8103 C 606.2031 713.7085 609.2776 718.1641 614.0149 721.1618 C 618.7522 724.1594 623.9834 724.946 629.6467 723.5367 C 635.6178 722.0507 639.9435 719.2123 642.6697 714.9446 L 642.6697 714.9446 Z" fill="#8b8c55"/>
		<path d="M 684.2571 697.4173 C 684.0706 700.074 683.2537 702.3002 681.8215 704.1577 C 680.3893 706.015 678.5883 707.1811 676.4337 707.7173 C 673.479 708.4525 671.0175 707.7599 669.0338 705.5779 C 667.0657 703.4573 665.4525 699.6169 664.0713 694.0874 C 662.7975 688.9879 662.5692 684.9333 663.4945 681.8317 C 664.4197 678.73 666.3597 676.8116 669.3146 676.0762 C 671.2844 675.5861 673.1152 675.8483 674.7919 676.8015 C 676.4838 677.8162 677.9598 679.5371 679.2816 681.9491 L 684.3933 677.0226 C 682.5483 674.6103 680.1182 672.9963 677.1798 672.2265 C 674.1799 671.4721 670.7332 671.5468 666.8549 672.5118 C 661.1915 673.9211 656.9735 676.9285 654.2009 681.5341 C 651.4282 686.1396 650.8401 691.3761 652.2828 697.1514 C 653.7255 702.9268 656.6924 707.2133 661.1682 709.9498 C 665.6442 712.6863 670.7061 713.319 676.3695 711.9097 C 680.0015 711.0059 683.0183 709.4721 685.4047 707.2468 C 687.8064 705.0829 689.4701 702.3196 690.3955 698.9568 L 684.2571 697.4173 L 684.2571 697.4173 Z" fill="#8b8c55"/>
		<path d="M 739.8977 696.1008 L 719.1077 675.4319 L 724.5966 658.1429 L 716.1016 660.2568 L 708.2544 683.8103 L 724.5081 699.9305 L 739.8977 696.1008 L 739.8977 696.1008 ZM 712.3195 702.9636 L 696.6038 640.0494 L 684.7845 642.9906 L 700.5002 705.9048 L 712.3195 702.9636 L 712.3195 702.9636 Z" fill="#8b8c55"/>
		<path d="M 747.4146 636.1499 C 747.8455 635.7816 748.4919 635.4902 749.2922 635.2911 C 750.5234 634.9847 751.708 635.2772 752.8308 636.1072 C 753.9535 636.9373 754.6914 638.0588 755.0597 639.5334 C 755.3359 640.6393 755.3352 641.6836 755.0576 642.6663 C 754.78 643.649 754.2255 644.5701 753.394 645.4296 L 746.2134 637.6235 C 746.5215 637.0247 746.9219 636.5335 747.4146 636.1499 L 747.4146 636.1499 ZM 764.9268 681.1277 C 764.2495 681.5573 763.603 681.8487 762.8643 682.0325 C 760.402 682.6451 758.002 681.9373 755.5414 679.9393 C 753.0807 677.9412 751.436 675.2833 750.6072 671.9655 C 750.1469 670.1224 749.9478 668.5404 750.1027 667.0662 C 750.2574 665.592 750.6737 664.379 751.3822 663.2891 L 766.8051 679.4856 C 766.1892 680.161 765.5425 680.7134 764.9268 681.1277 L 764.9268 681.1277 ZM 798.9937 681.3948 L 781.6602 669.3282 C 783.108 667.0103 783.9714 664.4461 784.2808 661.7587 C 784.5288 659.0867 784.3152 656.1379 783.4865 652.8201 C 783.1642 651.5298 782.8571 650.5621 782.6882 649.8864 C 782.4578 649.2258 782.2429 648.6267 782.0278 648.0277 L 773.8406 650.065 C 774.2861 651.0636 774.6394 651.9545 774.9622 652.7227 C 775.2385 653.5674 775.4843 654.2894 775.6531 654.9653 C 776.1442 656.9314 776.4045 658.759 776.4036 660.3255 C 776.4026 661.892 776.2477 663.3662 775.8776 664.7635 L 759.2531 650.8237 C 761.0854 648.9974 762.3792 647.1091 763.0881 645.236 C 763.7971 643.3629 763.9214 641.5047 763.4456 639.6001 C 762.6322 636.3438 760.7258 633.9468 757.7878 632.3939 C 754.8652 630.9023 751.511 630.5623 747.6945 631.5121 C 743.4469 632.5691 740.2451 634.6711 738.0735 637.7566 C 735.9172 640.9035 735.3149 644.251 736.2358 647.9374 L 745.3243 656.0519 C 740.8286 660.303 737.7949 664.1252 736.2847 667.5029 C 734.79 670.9421 734.4954 674.4741 735.4009 678.099 C 736.6899 683.2599 739.5494 687.1165 743.9794 689.6686 C 748.4092 692.2208 753.3789 692.746 758.9192 691.3673 C 761.8739 690.6321 764.5059 689.6508 766.7993 688.3622 C 769.0928 687.0737 771.1096 685.4624 772.8496 683.5284 L 777.2634 686.8024 L 798.9937 681.3948 L 798.9937 681.3948 Z" fill="#8b8c55"/>
		<path d="M 818.6923 676.4928 L 805.9232 625.3751 L 809.8014 624.41 C 815.2185 623.062 819.4038 623.0646 822.4803 624.3873 C 825.5569 625.71 827.6171 628.4603 828.6299 632.5153 C 829.6122 636.4474 829.0408 639.6567 827.0542 642.1741 C 825.0676 644.6915 821.4813 646.5629 816.4335 647.819 L 811.8167 648.968 L 836.6057 672.0351 L 854.7039 667.5314 L 832.4976 647.998 C 837.4536 645.5901 840.9023 642.6436 842.8588 639.2201 C 844.7688 635.8733 845.2329 631.9728 844.1587 627.6721 C 842.7007 621.8353 839.3335 617.7788 834.0419 615.4411 C 828.7656 613.1649 822.3032 612.9458 814.6084 614.8606 L 788.1997 621.4324 L 802.9333 680.4145 L 818.6923 676.4928 L 818.6923 676.4928 Z" fill="#8b8c55"/>
		<path d="M 881.8256 652.5596 C 881.239 655.4464 879.6377 657.1501 877.1138 657.7781 C 874.4053 658.4521 871.99 657.6828 869.9603 655.3164 C 867.9308 652.9501 866.2561 649.125 864.9055 643.7183 C 863.6163 638.5574 863.2804 634.595 863.8669 631.7081 C 864.4689 628.8828 866.0549 627.1176 868.6404 626.4742 C 871.3489 625.8002 873.7795 626.631 875.8091 628.9974 C 877.8386 631.3637 879.5134 635.1888 880.8333 640.4726 C 882.1224 645.6335 882.4122 649.6728 881.8256 652.5596 L 881.8256 652.5596 ZM 890.8728 653.1796 C 893.6145 648.9733 894.2639 643.9825 892.8367 638.2687 C 891.3633 632.3704 888.2119 627.8687 883.4746 624.871 C 878.7373 621.8734 873.5676 621.0715 868.0275 622.4501 C 861.9946 623.9514 857.623 626.8666 854.8966 631.1343 C 852.1857 635.4634 851.521 640.3927 852.9329 646.0452 C 854.4063 651.9434 857.4807 656.3989 862.218 659.3967 C 866.9553 662.3944 872.1865 663.1808 877.8499 661.7715 C 883.821 660.2856 888.1466 657.4472 890.8728 653.1796 L 890.8728 653.1796 Z" fill="#8b8c55"/>
		<path d="M 905.4097 588.0883 L 893.5903 591.0295 L 906.7738 643.8062 C 907.7253 647.6154 909.124 650.0734 911.0313 651.1651 C 912.877 652.2719 915.7081 652.3505 919.4633 651.4161 L 929.0046 649.0417 L 928.0225 645.1096 L 925.2524 645.799 C 923.2209 646.3044 921.7593 646.2114 920.8518 645.4583 C 919.8983 644.7819 919.1608 643.1382 918.5469 640.6806 L 905.4097 588.0883 L 905.4097 588.0883 Z" fill="#8b8c55"/>
		<path d="M 932.9875 581.2255 L 921.1685 584.1666 L 934.3519 636.9434 C 935.3035 640.7526 936.7021 643.2107 938.6094 644.3022 C 940.4551 645.4091 943.2864 645.4877 947.0414 644.5533 L 956.5829 642.1789 L 955.6006 638.2468 L 952.8306 638.9361 C 950.7991 639.4416 949.3374 639.3486 948.4299 638.5955 C 947.4764 637.9191 946.739 636.2755 946.125 633.8178 L 932.9875 581.2255 L 932.9875 581.2255 Z" fill="#8b8c55"/>
		<path d="M 994.2053 631.1661 L 994.8978 622.775 L 1008.7856 620.0807 L 1012.7018 627.5778 L 1026.9634 624.8109 L 1009.6262 595.8569 C 1007.9138 592.7058 1006.3569 590.6855 1004.8694 589.6841 C 1003.3938 588.7448 1001.5913 588.4493 999.4739 588.8602 C 997.1073 589.3193 995.4343 590.3534 994.3306 591.9867 C 993.2268 593.6199 992.4534 596.2857 992.0725 599.9719 L 987.1057 632.5435 L 994.2053 631.1661 L 994.2053 631.1661 ZM 998.186 601.4952 L 1006.2671 616.4409 L 995.8668 618.4586 L 998.186 601.4952 L 998.186 601.4952 Z" fill="#8b8c55"/>
		<path d="M 1049.6067 615.967 C 1051.4905 617.3433 1053.0162 618.2084 1054.196 618.6246 C 1055.3757 619.0408 1056.6075 619.0599 1057.9777 618.794 C 1059.6591 618.4678 1060.832 617.8532 1061.4221 616.9001 C 1062.0239 616.0093 1062.1937 614.5573 1061.8306 612.6925 L 1055.0878 578.0708 L 1047.1162 579.6173 L 1051.0021 599.5699 L 1040.4089 586.6595 C 1038.4646 584.9727 1036.7036 583.8951 1035.1018 583.3028 C 1033.4375 582.7225 1031.7336 582.6016 1029.8652 582.9641 C 1027.561 583.4111 1025.9885 584.2968 1025.1234 585.4967 C 1024.2083 586.7708 1024.0248 588.4836 1024.4606 590.7212 L 1030.9492 624.0377 L 1038.9207 622.4911 L 1033.8726 596.5715 L 1049.6067 615.967 L 1049.6067 615.967 Z" fill="#8b8c55"/>
		<path d="M 1096.5996 609.015 C 1090.9385 609.6605 1086.793 608.907 1084.0399 606.77 C 1081.287 604.6329 1079.6279 600.7041 1078.9397 594.9991 C 1078.259 589.3569 1078.9965 585.1279 1081.1521 582.3124 C 1083.3076 579.4967 1087.1506 577.7426 1092.7277 576.9167 L 1096.5996 609.015 L 1096.5996 609.015 ZM 1089.3396 548.8306 L 1092.2437 572.9044 L 1089.6627 573.2277 C 1081.551 574.2438 1075.6254 576.8317 1071.7549 580.9439 C 1067.8843 585.0562 1066.4152 590.4587 1067.2167 597.104 C 1067.9805 603.4359 1070.4679 608.0247 1074.7325 610.7997 C 1079.0046 613.6374 1084.8549 614.5592 1092.2904 613.6278 L 1108.8822 611.5494 L 1101.1382 547.3527 L 1089.3396 548.8306 L 1089.3396 548.8306 Z" fill="#8b8c55"/>
		<path d="M 1155.3793 603.7734 L 1154.5392 575.5714 L 1178.8596 575.5901 L 1178.6196 567.5324 L 1154.2993 567.5136 L 1153.8191 551.3982 L 1178.1396 551.417 L 1177.8995 543.3593 L 1137.3657 543.3279 L 1139.1658 603.7609 L 1155.3793 603.7734 L 1155.3793 603.7734 Z" fill="#8b8c55"/>
		<path d="M 1186.3556 586.2892 C 1185.975 591.7215 1186.9575 595.8525 1189.4342 598.6279 C 1191.9064 601.4664 1195.8684 603.0125 1201.4377 603.4011 C 1206.8173 603.7766 1210.9607 602.7328 1213.8679 600.2697 C 1216.7119 597.8022 1218.3876 593.8567 1218.7593 588.5507 L 1220.4719 564.1052 L 1212.3711 563.5398 L 1210.7601 586.5325 C 1210.5212 589.9435 1209.8423 592.3717 1208.8589 593.6995 C 1207.8121 595.0229 1206.1812 595.6073 1203.9662 595.4527 C 1201.8143 595.3025 1200.2808 594.4973 1199.4922 593.0458 C 1198.6401 591.5898 1198.3698 589.0955 1198.6088 585.6844 L 1200.2197 562.6918 L 1188.0684 561.8436 L 1186.3556 586.2892 L 1186.3556 586.2892 Z" fill="#8b8c55"/>
		<path d="M 1247.1909 602.4371 C 1248.5225 604.2916 1249.6831 605.5588 1250.6642 606.3008 C 1251.6454 607.0426 1252.8066 607.426 1254.1934 607.5824 C 1255.8953 607.7743 1257.2103 607.5438 1258.0844 606.8217 C 1258.9492 606.1617 1259.5896 604.8452 1259.8612 602.9821 L 1264.9026 568.3894 L 1256.8345 567.4797 L 1253.9291 587.4155 L 1248.1499 572.1187 C 1246.8635 569.9536 1245.5499 568.4167 1244.2269 567.3838 C 1242.8408 566.3438 1241.2654 565.7242 1239.3744 565.511 C 1237.0421 565.248 1235.2588 565.6151 1234.0425 566.4879 C 1232.7539 567.4158 1232.0144 568.9737 1231.6887 571.2095 L 1226.8372 604.4979 L 1234.9054 605.4076 L 1238.6797 579.5098 L 1247.1909 602.4371 L 1247.1909 602.4371 Z" fill="#8b8c55"/>
		<path d="M 1310.0721 621.6605 L 1301.3885 593.015 L 1314.6163 580.7117 L 1306.0656 578.3339 L 1287.3569 595.0313 L 1294.1466 617.5962 L 1310.0721 621.6605 L 1310.0721 621.6605 ZM 1281.3374 614.3271 L 1298.4757 551.4871 L 1286.4814 547.992 L 1268.7468 611.1139 L 1281.3374 614.3271 L 1281.3374 614.3271 Z" fill="#8b8c55"/>
		<path d="M 511.7775 675.924 L 583.26 662.7024 L 583.26 521.6041 L 676.7692 507.1451 L 676.7692 465.0776 L 583.26 479.5366 C 583.26 479.5366 583.26 289.1345 583.26 283.3178 C 583.26 273.4195 605.7023 263.5212 608.1959 278.3686 L 608.1959 342.7072 L 678.016 334.5068 L 678.016 258.5722 C 678.016 258.5722 679.2628 223.9282 608.1959 223.9282 C 537.129 223.9282 511.7775 279.9943 511.7775 279.9943 L 511.7775 675.924 Z" fill="#8b8c55"/>
		<path d="M 692.2004 271.8634 C 699.5713 258.7322 714.0813 253.4099 724.6106 259.9755 C 735.14 266.541 737.7006 282.5079 730.3302 295.6391 C 722.9594 308.7703 708.4492 314.0926 697.9199 307.527 C 687.3906 300.9614 684.8301 284.9945 692.2004 271.8634 ZM 691.3167 556.2781 L 691.3167 323.6333 L 734.5387 316.9863 L 734.5387 549.6311 L 691.3167 556.2781 Z" fill="#8b8c55"/>
		<path d="M 744.5132 546.3077 L 744.5132 313.6627 L 781.0862 310.3393 C 781.0862 310.3393 829.2957 292.8909 850.9067 320.3097 L 850.9067 529.6901 L 810.9458 535.9316 C 810.9458 535.9316 810.178 344.4051 810.178 333.6036 C 810.178 322.8023 781.0862 321.1406 781.0862 339.4199 C 781.0862 357.6991 781.9133 540.4662 781.9133 540.4662 L 744.5132 546.3077 Z" fill="#8b8c55"/>
		<path d="M 1090.2917 496.4552 L 1090.2917 263.8102 L 1126.8647 260.4868 C 1126.8647 260.4868 1175.0742 243.0384 1196.6853 270.4572 L 1196.6853 325.8489 L 1156.7246 332.0905 C 1156.7246 332.0905 1155.9565 294.5526 1155.9565 283.7513 C 1155.9565 272.9499 1126.8647 271.2881 1126.8647 289.5673 C 1126.8647 307.8466 1127.6919 490.6137 1127.6919 490.6137 L 1090.2917 496.4552 Z" fill="#8b8c55"/>
		<path d="M 920.7273 473.1907 C 899.1162 472.3598 894.1292 459.8967 894.1292 459.8967 L 894.1292 330.2802 C 894.1292 309.5083 920.7273 317.8171 920.7273 323.6333 L 920.7273 473.1907 ZM 857.5564 516.3962 L 857.5564 559.6017 C 857.5564 559.6017 862.5436 583.697 897.4539 582.8661 C 932.3643 582.0353 963.9496 558.7708 963.9496 546.3077 L 963.9496 283.7513 L 910.7532 290.3982 C 910.7532 290.3982 857.5564 297.8761 857.5564 333.6036 L 857.5564 466.5437 C 857.5564 466.5437 855.0625 483.9921 890.8042 496.4552 C 926.5458 508.9183 920.7273 516.3962 920.7273 516.3962 L 920.7273 542.9842 C 920.7273 542.9842 922.3896 552.1237 910.7532 552.9547 C 899.1162 553.7856 889.9731 545.4768 890.8042 533.0137 C 891.6355 520.5505 897.4539 516.3962 897.4539 516.3962 L 897.4539 509.7492 L 857.5564 516.3962 Z" fill="#8b8c55"/>
		<path d="M 1037.0952 356.8682 C 1037.0952 356.8682 1017.9778 360.1918 1013.8215 360.1918 C 1009.6655 360.1918 1007.1721 356.8682 1007.1721 353.5448 L 1007.1721 310.3393 C 1007.1721 298.707 1037.0952 277.1042 1037.0952 303.6923 L 1037.0952 356.8682 ZM 970.5992 476.5142 C 970.5992 476.5142 966.4436 503.933 1017.1465 503.1022 C 1071.9984 502.2034 1080.3176 459.8967 1080.3176 459.8967 L 1080.3176 423.3382 L 1033.7705 426.6617 L 1033.7705 466.5437 C 1028.7832 482.3304 1010.4968 475.6833 1010.4968 466.5437 L 1010.4968 396.7502 C 1010.4968 386.7797 1017.1465 386.7797 1017.1465 386.7797 L 1080.3176 380.1327 L 1080.3176 303.6923 C 1080.3176 303.6923 1084.4736 270.4572 1033.7705 270.4572 C 983.0674 270.4572 970.5992 310.3393 970.5992 310.3393 L 970.5992 476.5142 Z" fill="#8b8c55"/>
		<path d="M 1202.9193 409.6287 L 1203.3352 453.2497 C 1203.3352 453.2497 1215.803 475.2679 1243.2324 475.2679 C 1270.6621 475.2679 1309.7284 456.5732 1309.7284 439.9557 C 1309.7284 423.3382 1309.7284 356.8682 1309.7284 356.8682 C 1309.7284 356.8682 1308.8972 346.8978 1299.754 340.2508 C 1290.611 333.6036 1258.1941 319.8943 1258.1941 319.8943 C 1258.1941 319.8943 1243.2324 317.8171 1243.2324 293.7217 C 1243.2324 266.7183 1269.8311 258.4096 1269.8311 273.7808 C 1269.8311 289.1519 1269.8311 310.3393 1269.8311 310.3393 L 1309.7284 307.0157 L 1309.7284 263.8102 C 1309.7284 263.8102 1307.2349 240.5458 1273.1558 240.5458 C 1239.0767 240.5458 1203.3352 260.4868 1203.3352 287.0747 C 1203.3352 313.6627 1203.3352 323.6333 1203.3352 323.6333 C 1203.3352 323.6333 1205.2053 334.85 1216.6343 340.2508 C 1230.7531 346.9225 1256.7395 358.53 1256.7395 358.53 C 1256.7395 358.53 1269.8311 364.1384 1269.8311 375.1475 C 1269.8311 394.2575 1269.8311 433.3087 1269.8311 433.3087 C 1269.8311 433.3087 1268.9998 446.6028 1256.5317 446.6028 C 1244.064 446.6028 1236.5828 440.7866 1236.5828 426.6617 C 1236.5828 412.5368 1241.9858 410.8751 1241.9858 410.8751 L 1242.4015 403.8127 L 1202.9193 409.6287 Z" fill="#8b8c55"/>
		<path d="M 103.8027 740.9236 L 160.7207 730.3458 L 160.7207 607.4657 L 235.1772 595.8982 L 235.1772 562.2433 L 160.7207 573.8109 C 160.7207 573.8109 160.7207 431.4847 160.7207 426.8313 C 160.7207 418.9125 178.5901 410.9937 180.5756 422.8719 L 180.5756 474.3439 L 236.1699 467.7835 L 236.1699 407.0343 C 236.1699 407.0343 237.1626 379.3186 180.5756 379.3186 C 123.9887 379.3186 103.8027 424.1724 103.8027 424.1724 L 103.8027 740.9236 Z" fill="#8b8c55"/>
		<path d="M 292.7687 512.0625 C 292.7687 512.0625 301.0654 495.6173 316.4736 495.6173 C 316.4736 495.6173 321.2148 493.268 321.2148 502.6654 L 321.2148 594.2889 C 321.2148 594.2889 318.2516 604.2734 306.9918 606.0355 C 295.7318 607.7974 292.7687 604.2734 292.7687 584.8915 L 292.7687 512.0625 ZM 366.2543 622.5413 L 366.2543 399.2952 C 366.2543 399.2952 367.4396 373.4527 321.2148 373.4527 C 274.9899 373.4527 245.3586 398.1205 245.3586 420.4391 L 245.3586 465.0762 L 292.7687 458.0282 L 292.7687 418.0898 C 292.7687 418.0898 295.1392 403.9939 306.9918 403.9939 C 318.8444 403.9939 318.8444 415.7404 318.8444 415.7404 L 318.8444 443.9323 C 318.8444 443.9323 321.2148 455.0916 304.6213 465.0762 C 288.0277 475.0607 266.693 490.9187 266.693 490.9187 C 266.693 490.9187 245.3586 504.4273 245.3586 523.8091 L 245.3586 606.0355 C 245.3586 606.0355 247.9473 639.171 284.0975 637.409 C 320.2476 635.647 366.2543 622.5413 366.2543 622.5413 Z" fill="#8b8c55"/>
		<path d="M 373.1036 307.0821 L 373.1036 593.162 C 373.1036 593.162 380.521 620.6257 414.1835 620.6257 C 447.8463 620.6257 491.7789 602.8887 491.7789 574.8529 C 491.7789 546.817 491.7789 529.0802 491.7789 529.0802 L 446.1345 535.946 L 446.1345 577.1415 C 446.1345 577.1415 442.7113 588.5847 430.159 588.5847 C 417.6069 588.5847 421.0304 577.1415 421.0304 577.1415 L 421.0304 396.3391 L 491.7789 384.8958 L 491.7789 355.1436 L 421.0304 366.5868 L 421.0304 297.9276 L 373.1036 307.0821 Z" fill="#8b8c55"/>
		<path d="M 225.7952 335.9272 L 225.7952 153.9289 L 247.7938 150.2527 L 247.7938 193.9285 C 247.7938 193.9285 276.7921 183.4286 289.7913 199.9285 L 289.7913 325.9273 L 265.7546 329.6833 C 265.7546 329.6833 265.2928 214.4284 265.2928 207.9284 C 265.2928 201.4285 247.7938 200.4285 247.7938 211.4283 C 247.7938 222.4283 248.2914 332.412 248.2914 332.412 L 225.7952 335.9272 Z" fill="#8b8c55"/>
		<path d="M 337.7883 233.9282 C 337.7883 233.9282 326.289 235.9282 323.7892 235.9282 C 321.2893 235.9282 319.7894 233.9282 319.7894 231.9282 L 319.7894 205.9284 C 319.7894 198.9285 337.7883 185.9286 337.7883 201.9285 L 337.7883 233.9282 ZM 297.7908 305.9275 C 297.7908 305.9275 295.291 322.4274 325.789 321.9273 C 358.7826 321.3864 363.7867 295.9276 363.7867 295.9276 L 363.7867 273.9278 L 335.7885 275.9277 L 335.7885 299.9276 C 332.7885 309.4274 321.7892 305.4276 321.7892 299.9276 L 321.7892 257.9279 C 321.7892 251.928 325.789 251.928 325.789 251.928 L 363.7867 247.9281 L 363.7867 201.9285 C 363.7867 201.9285 366.2865 181.9287 335.7885 181.9287 C 305.2903 181.9287 297.7908 205.9284 297.7908 205.9284 L 297.7908 305.9275 Z" fill="#8b8c55"/>
		<path d="M 155.7995 178.8081 L 155.7995 331.289 C 155.7995 331.289 159.7993 345.9271 177.9519 345.9271 C 196.1048 345.9271 219.7955 336.4733 219.7955 321.5302 C 219.7955 306.5871 219.7955 297.1333 219.7955 297.1333 L 195.1818 300.7928 L 195.1818 322.7501 C 195.1818 322.7501 193.3356 328.8493 186.5668 328.8493 C 179.7981 328.8493 181.6442 322.7501 181.6442 322.7501 L 181.6442 226.3822 L 219.7955 220.2829 L 219.7955 204.4249 L 181.6442 210.5241 L 181.6442 173.9287 L 155.7995 178.8081 Z" fill="#8b8c55"/>
		<path d="M 501.9749 664.6713 L 573.4573 651.4496 L 573.4573 510.3514 L 666.9664 495.8925 L 666.9664 453.8249 L 573.4573 468.2839 C 573.4573 468.2839 573.4573 277.8818 573.4573 272.0651 C 573.4573 262.1667 595.8995 252.2685 598.3932 267.1159 L 598.3932 331.4545 L 668.2133 323.2541 L 668.2133 247.3195 C 668.2133 247.3195 669.4601 212.6755 598.3932 212.6755 C 527.3263 212.6755 501.9749 268.7416 501.9749 268.7416 L 501.9749 664.6713 Z" fill="#ffffff"/>
		<path d="M 682.3977 260.6107 C 689.7686 247.4795 704.2787 242.1572 714.808 248.7227 C 725.3374 255.2883 727.8978 271.2552 720.5276 284.3864 C 713.1567 297.5176 698.6466 302.8399 688.1173 296.2743 C 677.588 289.7087 675.0275 273.7418 682.3977 260.6107 ZM 681.5139 545.0254 L 681.5139 312.3806 L 724.7361 305.7335 L 724.7361 538.3784 L 681.5139 545.0254 Z" fill="#ffffff"/>
		<path d="M 734.7104 535.0549 L 734.7104 302.41 L 771.2834 299.0865 C 771.2834 299.0865 819.4929 281.6381 841.104 309.057 L 841.104 518.4374 L 801.1431 524.6789 C 801.1431 524.6789 800.3754 333.1523 800.3754 322.3509 C 800.3754 311.5496 771.2834 309.8879 771.2834 328.1671 C 771.2834 346.4464 772.1107 529.2135 772.1107 529.2135 L 734.7104 535.0549 Z" fill="#ffffff"/>
		<path d="M 1080.4891 485.2025 L 1080.4891 252.5575 L 1117.062 249.234 C 1117.062 249.234 1165.2715 231.7856 1186.8826 259.2045 L 1186.8826 314.5962 L 1146.9219 320.8378 C 1146.9219 320.8378 1146.1539 283.2999 1146.1539 272.4985 C 1146.1539 261.6972 1117.062 260.0354 1117.062 278.3146 C 1117.062 296.5939 1117.8893 479.361 1117.8893 479.361 L 1080.4891 485.2025 Z" fill="#ffffff"/>
		<path d="M 910.9247 461.938 C 889.3136 461.1071 884.3264 448.644 884.3264 448.644 L 884.3264 319.0275 C 884.3264 298.2556 910.9247 306.5643 910.9247 312.3806 L 910.9247 461.938 ZM 847.7537 505.1434 L 847.7537 548.349 C 847.7537 548.349 852.741 572.4443 887.6511 571.6134 C 922.5615 570.7826 954.147 547.5181 954.147 535.0549 L 954.147 272.4985 L 900.9504 279.1455 C 900.9504 279.1455 847.7537 286.6234 847.7537 322.3509 L 847.7537 455.291 C 847.7537 455.291 845.2598 472.7393 881.0015 485.2025 C 916.7432 497.6656 910.9247 505.1434 910.9247 505.1434 L 910.9247 531.7314 C 910.9247 531.7314 912.5869 540.871 900.9504 541.702 C 889.3136 542.5328 880.1704 534.2241 881.0015 521.7609 C 881.8328 509.2979 887.6511 505.1434 887.6511 505.1434 L 887.6511 498.4965 L 847.7537 505.1434 Z" fill="#ffffff"/>
		<path d="M 1027.2925 345.6155 C 1027.2925 345.6155 1008.1752 348.939 1004.0188 348.939 C 999.8628 348.939 997.3695 345.6155 997.3695 342.2921 L 997.3695 299.0865 C 997.3695 287.4542 1027.2925 265.8515 1027.2925 292.4396 L 1027.2925 345.6155 ZM 960.7965 465.2615 C 960.7965 465.2615 956.6409 492.6803 1007.3438 491.8495 C 1062.1958 490.9507 1070.5149 448.644 1070.5149 448.644 L 1070.5149 412.0854 L 1023.9678 415.409 L 1023.9678 455.291 C 1018.9806 471.0776 1000.6941 464.4306 1000.6941 455.291 L 1000.6941 385.4975 C 1000.6941 375.527 1007.3438 375.527 1007.3438 375.527 L 1070.5149 368.88 L 1070.5149 292.4396 C 1070.5149 292.4396 1074.6709 259.2045 1023.9678 259.2045 C 973.2646 259.2045 960.7965 299.0865 960.7965 299.0865 L 960.7965 465.2615 Z" fill="#ffffff"/>
		<path d="M 1193.1167 398.376 L 1193.5325 441.997 C 1193.5325 441.997 1206.0002 464.0151 1233.4297 464.0151 C 1260.8595 464.0151 1299.9258 445.3205 1299.9258 428.703 C 1299.9258 412.0854 1299.9258 345.6155 1299.9258 345.6155 C 1299.9258 345.6155 1299.0945 335.645 1289.9514 328.9981 C 1280.8083 322.3509 1248.3914 308.6416 1248.3914 308.6416 C 1248.3914 308.6416 1233.4297 306.5643 1233.4297 282.469 C 1233.4297 255.4656 1260.0283 247.1569 1260.0283 262.528 C 1260.0283 277.8992 1260.0283 299.0865 1260.0283 299.0865 L 1299.9258 295.763 L 1299.9258 252.5575 C 1299.9258 252.5575 1297.4323 229.2931 1263.353 229.2931 C 1229.2739 229.2931 1193.5325 249.234 1193.5325 275.822 C 1193.5325 302.41 1193.5325 312.3806 1193.5325 312.3806 C 1193.5325 312.3806 1195.4026 323.5973 1206.8315 328.9981 C 1220.9503 335.6697 1246.9369 347.2773 1246.9369 347.2773 C 1246.9369 347.2773 1260.0283 352.8857 1260.0283 363.8947 C 1260.0283 383.0048 1260.0283 422.0559 1260.0283 422.0559 C 1260.0283 422.0559 1259.197 435.35 1246.729 435.35 C 1234.2612 435.35 1226.78 429.5339 1226.78 415.409 C 1226.78 401.2841 1232.1831 399.6223 1232.1831 399.6223 L 1232.5989 392.56 L 1193.1167 398.376 Z" fill="#ffffff"/>
		<path d="M 94 730.6708 L 150.918 720.0931 L 150.918 597.213 L 225.3745 585.6455 L 225.3745 551.9907 L 150.918 563.5581 C 150.918 563.5581 150.918 421.232 150.918 416.5786 C 150.918 408.6598 168.7875 400.741 170.7729 412.6191 L 170.7729 464.0912 L 226.3672 457.5308 L 226.3672 396.7816 C 226.3672 396.7816 227.3599 369.0658 170.7729 369.0658 C 114.186 369.0658 94 413.9196 94 413.9196 L 94 730.6708 Z" fill="#ffffff"/>
		<path d="M 282.9661 500.8098 C 282.9661 500.8098 291.2627 484.3646 306.6709 484.3646 C 306.6709 484.3646 311.4121 482.0153 311.4121 491.4127 L 311.4121 583.0361 C 311.4121 583.0361 308.4489 593.0207 297.1891 594.7827 C 285.9292 596.5447 282.9661 593.0207 282.9661 573.6388 L 282.9661 500.8098 ZM 356.4515 611.2886 L 356.4515 388.0424 C 356.4515 388.0424 357.6369 362.2 311.4121 362.2 C 265.1873 362.2 235.556 386.8678 235.556 409.1864 L 235.556 453.8234 L 282.9661 446.7755 L 282.9661 406.8371 C 282.9661 406.8371 285.3364 392.7412 297.1891 392.7412 C 309.0416 392.7412 309.0416 404.4877 309.0416 404.4877 L 309.0416 432.6795 C 309.0416 432.6795 311.4121 443.8388 294.8186 453.8234 C 278.225 463.808 256.8903 479.666 256.8903 479.666 C 256.8903 479.666 235.556 493.1746 235.556 512.5564 L 235.556 594.7827 C 235.556 594.7827 238.1447 627.9183 274.2948 626.1563 C 310.4449 624.3942 356.4515 611.2886 356.4515 611.2886 Z" fill="#ffffff"/>
		<path d="M 363.3009 295.8294 L 363.3009 581.9093 C 363.3009 581.9093 370.7183 609.3729 404.3808 609.3729 C 438.0436 609.3729 481.9762 591.636 481.9762 563.6002 C 481.9762 535.5643 481.9762 517.8275 481.9762 517.8275 L 436.3318 524.6933 L 436.3318 565.8888 C 436.3318 565.8888 432.9086 577.332 420.3563 577.332 C 407.8043 577.332 411.2277 565.8888 411.2277 565.8888 L 411.2277 385.0864 L 481.9762 373.6431 L 481.9762 343.8908 L 411.2277 355.3341 L 411.2277 286.6749 L 363.3009 295.8294 Z" fill="#ffffff"/>
		<path d="M 215.9924 324.6745 L 215.9924 142.6762 L 237.9911 139 L 237.9911 182.6758 C 237.9911 182.6758 266.9894 172.1759 279.9885 188.6758 L 279.9885 314.6746 L 255.9519 318.4306 C 255.9519 318.4306 255.4901 203.1756 255.4901 196.6757 C 255.4901 190.1758 237.9911 189.1758 237.9911 200.1756 C 237.9911 211.1755 238.4888 321.1593 238.4888 321.1593 L 215.9924 324.6745 Z" fill="#ffffff"/>
		<path d="M 327.9856 222.6755 C 327.9856 222.6755 316.4863 224.6754 313.9865 224.6754 C 311.4867 224.6754 309.9867 222.6755 309.9867 220.6755 L 309.9867 194.6757 C 309.9867 187.6758 327.9856 174.6759 327.9856 190.6758 L 327.9856 222.6755 ZM 287.988 294.6748 C 287.988 294.6748 285.4883 311.1746 315.9863 310.6746 C 348.98 310.1337 353.984 284.6749 353.984 284.6749 L 353.984 262.6751 L 325.9857 264.675 L 325.9857 288.6748 C 322.9858 298.1747 311.9866 294.1748 311.9866 288.6748 L 311.9866 246.6752 C 311.9866 240.6753 315.9863 240.6753 315.9863 240.6753 L 353.984 236.6753 L 353.984 190.6758 C 353.984 190.6758 356.4838 170.6759 325.9857 170.6759 C 295.4876 170.6759 287.988 194.6757 287.988 194.6757 L 287.988 294.6748 Z" fill="#ffffff"/>
		<path d="M 145.9968 167.5554 L 145.9968 320.0363 C 145.9968 320.0363 149.9966 334.6744 168.1492 334.6744 C 186.3021 334.6744 209.9929 325.2206 209.9929 310.2775 C 209.9929 295.3344 209.9929 285.8806 209.9929 285.8806 L 185.3791 289.5401 L 185.3791 311.4973 C 185.3791 311.4973 183.5329 317.5966 176.764 317.5966 C 169.9954 317.5966 171.8414 311.4973 171.8414 311.4973 L 171.8414 215.1295 L 209.9929 209.0302 L 209.9929 193.1721 L 171.8414 199.2714 L 171.8414 162.676 L 145.9968 167.5554 Z" fill="#ffffff"/>
	</g>
</svg>